<?xml version="1.0" standalone="no"?>
<!DOCTYPE svg PUBLIC "-//W3C//DTD SVG 20010904//EN"
 "http://www.w3.org/TR/2001/REC-SVG-20010904/DTD/svg10.dtd">
<svg version="1.0" xmlns="http://www.w3.org/2000/svg"
 width="626.000000pt" height="626.000000pt" viewBox="0 0 626.000000 626.000000"
 preserveAspectRatio="xMidYMid meet">

<g transform="translate(0.000000,626.000000) scale(0.100000,-0.100000)"
fill="#000000" stroke="none">
<path d="M3040 5104 c-75 -32 -114 -92 -125 -194 -4 -36 -11 -69 -15 -75 -27
-36 -16 -107 19 -131 10 -7 22 -33 25 -56 19 -111 20 -102 -18 -132 l-37 -27
26 -31 c37 -44 24 -46 -32 -5 -92 67 -151 90 -240 95 -91 5 -121 -1 -105 -21
5 -6 13 -22 16 -34 5 -15 -5 -10 -36 22 -50 50 -109 70 -177 60 -102 -14 -121
-29 -147 -110 -10 -31 -13 -34 -13 -15 -1 39 35 109 62 121 17 8 33 32 52 80
47 120 130 229 174 229 24 0 55 35 45 52 -6 10 -3 9 10 -1 9 -8 15 -20 12 -28
-3 -8 4 -18 17 -24 21 -9 21 -9 -3 -4 -44 11 -53 10 -57 -2 -2 -7 14 -21 35
-32 37 -19 41 -19 48 -3 4 9 6 21 5 26 -1 5 6 17 15 27 15 17 15 20 0 43 -25
39 -19 44 9 6 l25 -34 -21 -22 -20 -21 28 5 c38 7 54 31 40 57 -9 18 -9 19 7
6 11 -10 15 -22 11 -38 -7 -27 12 -31 30 -6 10 13 10 23 3 38 -10 18 -9 19 6
4 14 -13 15 -20 5 -42 -11 -24 -18 -27 -59 -27 -50 0 -77 -18 -66 -45 8 -22
52 -18 75 6 11 12 26 19 35 16 10 -4 25 6 42 29 l27 35 -33 47 c-66 94 -61 91
-169 88 -87 -2 -101 -5 -146 -33 -27 -17 -96 -55 -152 -86 -235 -129 -354
-248 -378 -380 -4 -20 -13 -41 -21 -48 -8 -6 -14 -27 -14 -46 0 -26 8 -41 32
-64 37 -33 68 -45 170 -63 l73 -14 -57 -1 c-32 -1 -58 -5 -58 -10 0 -14 101
-87 167 -120 166 -83 338 -42 389 91 5 16 2 17 -27 10 -90 -20 -262 3 -314 42
-15 11 -2 9 45 -6 92 -29 259 -31 289 -4 21 19 21 19 35 -15 8 -19 31 -92 51
-164 20 -71 55 -168 78 -215 53 -108 52 -104 37 -95 -43 26 -134 222 -160 344
-17 74 -17 74 -59 28 -38 -41 -39 -44 -31 -89 13 -69 64 -194 110 -268 92
-150 120 -237 120 -370 -1 -51 -20 -174 -36 -227 -6 -23 -6 -23 117 -23 121 1
125 1 142 26 18 24 18 25 -24 97 -23 40 -67 116 -97 170 l-55 99 12 71 c42
249 80 395 108 418 12 10 50 14 139 14 141 0 161 9 171 81 4 34 1 43 -30 75
-47 49 -56 106 -36 224 3 14 -2 21 -17 23 -31 4 -35 -25 -23 -168 9 -102 9
-132 -2 -164 -18 -51 -36 -58 -31 -12 2 20 -2 43 -11 56 -14 20 -14 20 -27
-10 -18 -43 -56 -70 -99 -70 l-36 0 33 17 c18 9 37 24 43 34 12 24 8 24 -36
-2 -40 -24 -108 -28 -132 -7 -18 15 -43 69 -43 94 0 12 6 10 31 -10 52 -44 99
-30 129 38 11 23 28 95 40 161 30 169 55 214 121 217 40 1 84 -20 117 -55 23
-25 23 -26 6 -54 l-18 -28 30 28 c17 15 46 32 65 37 39 12 122 -1 168 -25 46
-23 52 -38 53 -142 0 -30 4 -43 14 -43 8 0 14 -4 14 -10 0 -5 -9 -10 -21 -10
-16 0 -19 -4 -14 -17 27 -67 28 -76 11 -85 -9 -5 -14 -13 -11 -19 4 -5 1 -9
-4 -9 -6 0 -11 -6 -11 -14 0 -8 -5 -16 -12 -18 -7 -3 -12 -20 -12 -39 -1 -29
-5 -34 -27 -37 -15 -2 -43 4 -63 12 -34 14 -36 14 -36 -4 0 -42 22 -70 54 -70
64 0 111 -22 181 -84 100 -89 137 -115 192 -136 35 -13 52 -26 64 -50 16 -32
16 -31 22 88 4 67 4 148 1 180 -6 52 -4 62 15 81 11 11 21 26 21 32 0 6 -8 1
-17 -10 -10 -12 -34 -26 -54 -30 -102 -23 -171 88 -100 160 31 31 59 36 94 17
20 -10 21 -10 8 5 -8 10 -28 17 -47 17 -19 0 -34 4 -34 10 0 16 23 60 31 60 4
0 7 14 7 32 -2 71 99 105 160 53 16 -14 32 -37 35 -51 6 -34 -9 -90 -27 -97
-18 -7 -13 -114 9 -237 19 -99 31 -328 21 -391 -4 -24 -13 -52 -21 -63 -13
-17 -18 -17 -122 14 -59 17 -150 50 -202 73 -92 41 -95 44 -127 102 -56 100
-38 32 21 -81 52 -100 55 -108 41 -129 -17 -25 -64 -40 -96 -30 -33 11 -23
-12 13 -26 17 -7 34 -14 36 -15 1 -2 -28 -49 -65 -105 l-69 -102 0 -76 0 -76
78 -3 c42 -2 77 -1 77 2 0 3 -6 29 -14 59 -8 29 -17 87 -21 128 -6 71 -6 76
24 119 17 25 31 50 31 56 0 6 11 21 25 34 27 25 33 67 14 102 -10 19 -9 20 7
13 168 -68 331 -117 354 -105 54 29 74 192 46 390 -9 63 -16 117 -16 121 0 4
30 21 67 39 68 31 173 105 173 121 0 5 -26 9 -57 10 l-58 1 73 14 c103 18 136
31 171 65 34 32 42 80 17 108 -7 9 -19 38 -25 65 -32 132 -162 253 -416 387
-55 29 -113 62 -130 73 -25 17 -47 21 -131 23 l-101 3 -47 -71 -47 -71 25 -33
c18 -23 31 -32 45 -28 13 3 23 -2 30 -16 12 -22 54 -28 78 -13 10 6 9 13 -3
30 -12 17 -25 22 -63 22 -41 0 -50 4 -61 25 -11 20 -11 28 -1 38 10 9 12 9 10
-3 -3 -23 11 -50 27 -50 10 0 13 7 9 23 -4 16 0 28 12 38 16 13 17 12 5 -3
-18 -22 4 -58 35 -58 12 0 30 -11 40 -24 l18 -24 38 20 c21 10 36 24 34 31 -5
13 -17 13 -64 -1 -27 -9 -34 -7 -52 12 l-21 22 25 34 c28 38 34 33 9 -5 -13
-21 -14 -28 -4 -41 17 -20 66 -15 62 7 -1 9 4 22 12 28 12 10 14 9 10 -7 -4
-13 2 -22 21 -30 14 -7 31 -12 37 -12 26 0 103 -98 140 -176 21 -45 38 -87 38
-93 0 -6 14 -20 30 -33 34 -25 70 -92 69 -129 0 -18 -3 -14 -13 16 -26 81 -45
96 -147 110 -68 10 -127 -10 -176 -60 -42 -41 -58 -41 -28 1 8 12 11 24 8 28
-3 3 -42 6 -85 6 -76 0 -80 1 -112 34 -38 38 -110 66 -168 66 -30 0 -38 4 -38
18 0 10 11 28 25 40 14 12 25 32 26 44 2 38 -3 72 -11 83 -4 6 -11 39 -14 74
-11 98 -46 155 -118 192 -45 23 -138 25 -188 3z m636 -796 c-4 -13 -11 -52
-16 -87 -10 -78 -42 -191 -53 -191 -26 0 -6 112 45 248 19 51 37 73 24 30z
m350 7 c-11 -8 -27 -15 -35 -14 -9 0 -2 7 14 14 39 18 45 18 21 0z m-208 -211
c14 -4 18 -209 4 -218 -12 -7 -117 49 -120 65 -1 8 7 41 18 73 11 33 20 67 20
77 0 15 6 18 33 13 17 -3 38 -7 45 -10z"/>
<path d="M3840 4460 c-12 -7 -10 -9 7 -7 12 0 19 5 17 9 -6 10 -6 10 -24 -2z"/>
<path d="M2995 3819 c-24 -49 -49 -114 -55 -143 -11 -52 -10 -54 24 -104 19
-28 49 -88 68 -133 24 -59 34 -76 36 -59 2 12 13 32 24 44 11 11 27 31 35 43
22 32 19 137 -5 205 -19 54 -71 140 -92 153 -6 4 -4 18 6 36 15 30 16 30 42
13 15 -9 37 -26 50 -37 12 -11 22 -16 22 -10 0 13 -66 66 -93 76 -15 6 -26 -9
-62 -84z"/>
<path d="M3378 3629 c-22 -23 -41 -24 -99 -4 l-44 15 30 -25 c57 -47 135 -41
135 10 0 29 0 29 -22 4z"/>
<path d="M1820 2895 l0 -305 1310 0 1310 0 0 305 0 305 -1310 0 -1310 0 0
-305z m869 260 c32 -16 41 -33 41 -76 0 -67 -71 -137 -124 -123 -25 6 -26 5
-26 -45 0 -39 -4 -51 -15 -51 -27 0 -34 42 -20 118 8 39 19 80 24 91 17 30 14
46 -4 31 -8 -7 -15 -19 -15 -26 0 -19 -19 -18 -26 1 -9 22 23 64 59 80 42 18
71 18 106 0z m484 -7 c8 -12 6 -26 -8 -52 -31 -57 -45 -44 -20 17 19 46 -74
-13 -100 -64 -16 -30 -16 -30 19 -44 20 -8 40 -15 45 -15 15 0 31 -34 31 -64
0 -31 -49 -66 -93 -66 -29 0 -77 41 -77 66 0 25 20 25 30 0 10 -29 26 -32 65
-14 36 16 31 33 -15 47 -50 15 -74 48 -61 83 22 59 111 131 155 125 10 -1 24
-10 29 -19z m147 2 c0 -13 -7 -20 -20 -20 -11 0 -20 -2 -20 -5 0 -2 -12 -50
-26 -105 -25 -96 -25 -102 -8 -114 29 -22 11 -46 -36 -46 -22 0 -40 2 -40 5 0
14 54 205 66 235 10 23 11 36 4 38 -5 2 -10 7 -10 12 0 10 24 17 63 19 21 1
27 -4 27 -19z m167 -6 c23 -23 25 -31 20 -84 -8 -91 -76 -200 -125 -200 -9 0
-24 7 -34 17 -23 21 -25 106 -3 161 9 22 15 43 14 48 -9 31 43 83 84 84 10 0
30 -12 44 -26z m142 7 c6 -10 18 -57 27 -105 l17 -87 32 93 c25 76 35 94 53
96 28 4 28 3 -8 -107 -17 -51 -33 -112 -37 -136 -3 -25 -11 -45 -18 -45 -25 0
-59 52 -70 107 l-11 56 -36 -76 c-21 -43 -47 -83 -62 -93 -35 -22 -44 -12 -18
21 27 34 57 115 78 208 9 39 18 75 21 80 7 13 22 8 32 -12z m-685 -36 c-1 -22
-9 -65 -18 -95 -22 -74 -21 -146 2 -159 15 -9 15 -10 -5 -11 -30 0 -53 26 -53
61 0 33 -11 36 -63 14 -43 -18 -56 -49 -32 -76 17 -18 17 -19 0 -25 -22 -9
-55 28 -55 60 0 44 60 147 123 212 76 78 103 83 101 19z m-219 -344 c3 -5 -9
-11 -27 -13 -42 -4 -50 -28 -9 -28 38 0 41 -18 4 -22 -22 -2 -29 -9 -31 -30
-6 -54 -22 -27 -22 37 l0 65 39 0 c22 0 42 -4 46 -9z m75 -57 c0 -48 -3 -65
-12 -62 -15 5 -22 69 -14 105 12 45 26 22 26 -43z m160 56 c0 -5 -9 -10 -20
-10 -18 0 -20 -7 -20 -55 0 -42 -3 -55 -15 -55 -12 0 -15 13 -15 55 0 48 -2
55 -20 55 -11 0 -20 5 -20 10 0 6 25 10 55 10 30 0 55 -4 55 -10z m90 -25 c12
-19 26 -35 31 -35 5 0 9 16 9 35 0 19 5 35 10 35 6 0 10 -28 10 -65 0 -77 -16
-86 -52 -27 l-23 37 -3 -37 c-2 -25 -8 -38 -18 -38 -10 0 -14 14 -14 58 0 83
15 94 50 37z m210 26 c0 -6 -14 -11 -32 -13 -46 -4 -49 -28 -4 -28 45 0 48
-18 4 -22 -22 -2 -34 -9 -36 -20 -3 -14 4 -18 32 -18 19 0 38 -4 41 -10 4 -6
-13 -10 -44 -10 l-51 0 0 65 0 65 45 0 c25 0 45 -4 45 -9z m144 -13 c15 -25
-1 -34 -23 -14 -11 10 -25 15 -30 11 -19 -11 -12 -21 22 -30 27 -8 32 -15 32
-40 0 -27 -3 -30 -36 -33 -41 -3 -71 20 -51 40 8 8 13 7 18 -5 3 -9 14 -17 24
-17 35 0 31 19 -6 37 -44 21 -51 35 -28 57 20 21 63 17 78 -6z m141 6 c11 -12
13 -20 6 -27 -8 -8 -15 -5 -24 8 -8 10 -19 15 -25 11 -20 -12 -13 -23 21 -32
24 -7 33 -16 35 -36 3 -22 -2 -29 -22 -34 -34 -8 -57 -2 -70 18 -14 23 1 36
17 14 7 -10 21 -17 31 -15 27 6 20 23 -13 33 -17 5 -33 17 -37 28 -13 42 47
65 81 32z"/>
<path d="M2624 3111 c3 -5 -3 -34 -13 -64 -26 -74 -15 -86 37 -42 35 29 50 78
32 100 -13 16 -65 21 -56 6z"/>
<path d="M3409 3131 c-21 -17 -22 -20 -7 -26 15 -6 15 -10 -3 -51 -11 -24 -23
-67 -26 -94 -5 -46 -4 -50 15 -50 27 0 70 56 88 116 18 61 18 89 -2 108 -20
21 -37 20 -65 -3z"/>
<path d="M2861 3045 c-39 -45 -65 -84 -59 -90 2 -3 19 1 36 7 26 10 34 21 46
62 8 28 14 52 12 53 -2 2 -17 -12 -35 -32z"/>
<path d="M2956 2404 c-107 -26 -186 -84 -186 -138 0 -9 19 -74 41 -143 36
-110 40 -130 28 -147 -65 -103 -74 -128 -74 -226 0 -82 4 -103 27 -152 70
-151 246 -240 405 -208 171 36 290 167 301 333 5 88 -6 134 -54 212 l-36 60
36 123 c53 179 47 225 -32 258 -104 43 -334 58 -456 28z m169 -24 c-171 -11
-277 -55 -283 -117 -2 -18 15 -89 37 -160 l40 -127 -25 -33 c-36 -47 -62 -110
-69 -169 -13 -99 38 -224 117 -289 l33 -26 -31 15 c-43 21 -92 79 -123 146
-47 101 -31 221 45 331 l25 37 -40 124 c-23 69 -41 137 -41 151 0 71 143 126
325 125 l90 -1 -100 -7z m199 -98 c55 -25 55 -22 15 -151 l-20 -69 -47 21
c-67 31 -217 31 -284 0 l-46 -21 -26 83 c-14 46 -24 90 -20 98 5 15 54 39 114
56 19 6 87 9 150 8 92 -3 125 -8 164 -25z m96 -13 c15 -28 11 -67 -19 -159
-23 -73 -30 -85 -51 -88 -21 -3 -22 -2 -11 11 7 9 25 60 41 114 25 88 26 101
14 125 -13 24 -12 27 1 22 9 -4 20 -15 25 -25z m-345 -215 c-115 -36 -139 -40
-92 -14 39 21 100 37 147 38 14 1 -11 -10 -55 -24z"/>
<path d="M1575 2359 c-46 -11 -89 -29 -104 -42 -130 -119 -86 -617 84 -946 25
-48 63 -106 85 -128 58 -61 75 -62 268 -18 23 6 23 6 -12 45 -87 96 -179 341
-232 615 -25 125 -25 392 -2 453 20 49 23 48 -87 21z m72 -16 c-16 -57 -19
-89 -19 -193 0 -126 -2 -128 -21 -25 l-13 70 -11 -75 -10 -75 -2 69 c-1 87
-11 80 -21 -16 l-7 -73 -3 80 c-2 89 -16 72 -20 -25 l-2 -55 -13 50 -13 50 -2
-65 c-2 -64 -2 -64 -12 -25 -5 22 -8 57 -6 77 5 58 -11 29 -21 -38 l-9 -59 -1
59 c-1 71 -7 69 -20 -5 -10 -50 -10 -48 -6 31 8 163 44 218 155 243 85 20 82
20 77 0z"/>
<path d="M4584 2368 c2 -7 12 -38 22 -68 24 -78 14 -300 -21 -470 -50 -243
-156 -504 -230 -569 l-33 -29 91 -21 c51 -12 103 -21 116 -21 58 0 118 65 183
195 143 286 197 710 113 882 -31 63 -38 67 -147 93 -98 23 -101 24 -94 8z
m112 -28 c65 -13 94 -32 117 -76 20 -39 37 -135 36 -198 l-2 -51 -11 65 -11
65 -5 -65 -5 -65 -9 65 -9 65 -8 -64 c-10 -83 -19 -89 -20 -15 l-1 59 -11 -45
-11 -45 -7 68 c-10 95 -19 95 -20 1 l-2 -79 -8 79 c-5 43 -11 81 -14 84 -3 3
-6 -28 -6 -69 l-2 -74 -11 75 -12 75 -13 -77 c-7 -43 -15 -78 -18 -78 -3 0 -3
32 -1 71 5 69 -4 180 -18 228 -6 20 -4 23 8 18 9 -3 42 -11 74 -17z"/>
<path d="M1695 2347 c-8 -12 -20 -58 -26 -100 -41 -273 137 -915 271 -981 38
-19 57 -9 75 37 30 75 30 208 -1 428 l-6 46 58 6 c33 3 120 13 194 21 74 8
206 20 292 27 l157 12 11 30 c5 17 10 32 10 33 0 20 -482 -25 -879 -83 -43 -6
-60 4 -61 33 0 23 473 79 848 100 111 6 145 14 128 32 -13 12 -506 -30 -748
-64 l-47 -7 -11 44 c-6 24 -25 82 -42 129 -82 224 -174 331 -223 257z m135
-310 c15 -35 31 -79 35 -99 7 -35 6 -36 -29 -42 -20 -4 -40 -5 -45 -2 -12 8
-25 158 -16 185 11 35 25 24 55 -42z m86 -314 c13 -63 10 -186 -3 -190 -22 -8
-104 191 -85 208 4 4 21 9 37 12 17 2 33 5 37 6 4 0 10 -16 14 -36z"/>
<path d="M4471 2332 c-49 -46 -106 -163 -152 -312 -18 -58 -33 -106 -34 -108
-1 -1 -94 9 -206 22 -112 14 -262 30 -334 36 -71 5 -158 12 -192 15 -41 4 -63
2 -63 -5 0 -16 46 -30 103 -30 116 0 540 -44 790 -81 71 -11 77 -13 77 -35 0
-30 -2 -30 -211 1 -216 32 -719 83 -719 72 0 -2 5 -18 11 -36 13 -37 1 -35
249 -56 107 -9 254 -24 325 -33 127 -17 130 -18 129 -42 -1 -14 -7 -86 -14
-160 -24 -239 14 -356 101 -310 23 13 77 97 108 170 109 255 179 631 152 810
-20 127 -51 148 -120 82z m14 -346 c-8 -105 -12 -110 -64 -101 -22 4 -41 8
-41 9 0 2 9 32 21 67 55 168 97 181 84 25z m-78 -246 c24 0 25 -2 19 -42 -9
-59 -62 -171 -78 -165 -10 3 -12 30 -11 97 2 106 7 125 29 116 9 -3 27 -6 41
-6z"/>
<path d="M1331 2197 c-45 -16 -70 -51 -87 -123 -58 -248 92 -767 239 -823 15
-6 42 -5 71 1 43 9 46 11 33 26 -50 57 -140 292 -179 464 -19 87 -23 131 -23
286 0 115 -4 182 -10 181 -5 0 -25 -5 -44 -12z m38 -69 c-4 -35 -11 -94 -15
-133 -7 -62 -8 -66 -15 -35 -5 28 -7 30 -8 10 -2 -23 -3 -23 -11 -5 -8 21 -8
21 -23 -50 -3 -11 -6 -2 -7 20 -2 39 -3 39 -10 10 -7 -28 -8 -28 -9 -5 l-2 25
-15 -25 c-13 -23 -14 -20 -8 45 10 122 32 177 78 195 49 20 53 15 45 -52z"/>
<path d="M4875 2028 c0 -155 -4 -199 -23 -286 -31 -139 -84 -289 -138 -391
-24 -46 -44 -85 -44 -87 0 -2 18 -8 40 -14 99 -27 171 62 255 314 58 171 80
376 54 498 -20 94 -48 129 -114 142 l-30 6 0 -182z m92 127 c27 -30 39 -75 47
-170 6 -65 5 -68 -8 -45 l-15 25 -2 -25 c-1 -23 -2 -23 -9 5 -7 29 -8 29 -10
-10 -1 -22 -4 -31 -7 -20 -15 71 -15 71 -23 50 -8 -18 -9 -18 -11 5 -1 18 -4
13 -8 -15 -6 -36 -8 -32 -15 40 -4 44 -11 106 -15 138 l-8 59 31 -6 c17 -3 41
-17 53 -31z"/>
<path d="M1173 2004 c-45 -22 -58 -67 -57 -189 2 -163 68 -368 143 -439 25
-24 35 -27 65 -22 l34 7 -28 62 c-68 152 -110 337 -112 500 0 53 -4 97 -7 97
-3 0 -20 -8 -38 -16z m26 -76 c-1 -73 -15 -146 -19 -103 -2 15 -4 12 -10 -10
-7 -28 -8 -29 -10 -5 l-2 25 -7 -25 c-7 -22 -9 -19 -16 22 -4 27 -4 65 0 85 6
36 39 83 57 83 4 0 8 -33 7 -72z"/>
<path d="M5041 1921 c-1 -162 -42 -345 -111 -498 l-28 -62 30 -6 c60 -14 125
69 172 218 67 213 56 408 -26 436 -17 6 -32 11 -34 11 -1 0 -3 -44 -3 -99z
m58 55 c27 -28 38 -94 26 -153 -7 -36 -8 -36 -15 -13 -8 25 -8 25 -10 -5 l-3
-30 -7 35 c-5 21 -8 27 -10 15 -2 -17 -3 -17 -10 5 -11 34 -12 170 -2 170 5 0
19 -11 31 -24z"/>
<path d="M1061 1761 c-21 -13 -11 -136 15 -186 16 -30 28 -41 49 -43 25 -3 27
-1 21 20 -10 37 -33 140 -40 181 -7 37 -19 44 -45 28z m28 -63 c-1 -29 -4 -44
-7 -33 l-5 20 -8 -20 c-5 -15 -8 -7 -8 26 -1 25 2 49 6 52 16 17 23 3 22 -45z"/>
<path d="M5155 1733 c-6 -36 -28 -133 -41 -180 -5 -20 -2 -23 19 -23 27 0 47
24 66 81 17 51 17 139 0 150 -26 17 -38 9 -44 -28z m42 -39 c2 -34 0 -43 -6
-29 l-8 20 -5 -20 c-3 -11 -6 4 -7 33 -1 71 23 67 26 -4z"/>
</g>
</svg>
